# xmcd
#
# Track frame offsets: 
#        150
#        12300
#        23325
#        40665
#        56320
#        73342
#        88322
#        105070
#        120135
#        133887
#        149400
#        165227
#        183442
#        195840
#        210157
#        226665
#        241470
#        256187
#        271650
#        283232
#        296582
#        311625
#
# Disc length: 4388 seconds
#
# Revision: 0
# Processed by: cddbd v1.5.2PL0 Copyright (c) Steve Scherf et al.
# Submitted via: ExactAudioCopy v0.99pb5
#
DISCID=1f112216
DTITLE=Various Artist - CBS Records Limited Edition Radio Sampler
DYEAR=1988
DGENRE=Country
TTITLE0=Sweethearts Of The Rodeo - Satisfy You
TTITLE1=Vern Gosdin - Set 'Em Up Joe
TTITLE2=Vern Gosdin - Chiseled In Stone
TTITLE3=Russell Smith - Three Piece Suit
TTITLE4=Russell Smith - Betty Jean
TTITLE5=Merle Haggard - Chill Factor
TTITLE6=Merle Haggard - We Never Touch At All
TTITLE7=Marty Stuart - Mirrors Don't Lie
TTITLE8=Gatlins - Love Of A Lifetime
TTITLE9=Shooters - Heartbreak Highway
TTITLE10=Shooters - Louise
TTITLE11=Rosanne Cash - Runaway Train
TTITLE12=Janie Frickie - Where Does Love Go (When It's Gone)
TTITLE13=George Jones - I'm A Survivor
TTITLE14=Shenandoah - She Doesn't Cry Anymore
TTITLE15=Rodney Crowell - I Couldn't Leave You If I Tried
TTITLE16=Rodney Crowell - She's Crazy For Leaving
TTITLE17=Libby Hurley - Don't Talk To Me
TTITLE18=Ricky Van Shelton - Don't We All Have The Right
TTITLE19=Tammy Wynette - Beneath A Painted Sky
TTITLE20=O'Kanes - One True Love
TTITLE21=Exile - Just One Kiss
EXTD=
EXTT0=
EXTT1=
EXTT2=
EXTT3=
EXTT4=
EXTT5=
EXTT6=
EXTT7=
EXTT8=
EXTT9=
EXTT10=
EXTT11=
EXTT12=
EXTT13=
EXTT14=
EXTT15=
EXTT16=
EXTT17=
EXTT18=
EXTT19=
EXTT20=
EXTT21=
PLAYORDER=
